<svg width="61" height="61" viewBox="0 0 61 61" fill="none" xmlns="http://www.w3.org/2000/svg">
<path d="M60.9906 44.0764C60.7094 43.9608 60.7833 44.2086 60.7606 44.3182C59.3095 51.2308 55.1515 55.5961 48.3605 57.4642C47.3502 57.7418 46.3053 57.8848 45.2521 57.8848C39.0222 57.8907 32.7924 57.8883 26.5637 57.8883C26.4457 57.8883 26.3266 57.874 26.2087 57.8669C26.2075 49.222 26.2063 40.5772 26.2051 31.9335C26.2194 31.9038 26.2265 31.8728 26.2277 31.8406C27.7051 31.1603 29.2277 30.4979 30.8504 30.4681C32.2205 30.4431 33.1498 29.8808 34.0898 28.9943C35.5886 27.5801 37.4353 26.7009 39.3451 25.9622C41.0988 25.4618 42.8693 25.0794 44.7112 25.1401C51.4617 25.3606 56.3357 28.5404 59.4239 34.4986C60.0982 35.7985 60.5128 37.2031 60.7535 38.6531C60.7821 38.827 60.7833 38.827 60.9918 38.9557V44.0764H60.9906Z" fill="#6AA8FE"/>
<path d="M0.00998047 28.4756C0.183926 28.6495 0.208945 28.4613 0.270898 28.3671C0.677168 27.7476 1.255 27.501 1.98891 27.5069C3.87252 27.5236 5.75613 27.5081 7.63855 27.5141C8.76324 27.5177 9.53885 28.2361 9.54957 29.2666C9.56029 30.3187 8.77158 31.0764 7.62545 31.0835C5.78234 31.0943 3.93805 31.0776 2.09375 31.0907C1.27645 31.0966 0.621172 30.8441 0.208945 30.0982C0.175586 30.0387 0.135078 29.885 0.00878906 30.0232V28.4756H0.00998047Z" fill="#FCDE4C"/>
<path d="M26.2042 31.934C26.2054 40.5789 26.2066 49.2237 26.2078 57.8674C23.4711 57.8507 20.7285 58.0485 18.0014 57.7637C13.3644 57.28 9.3196 53.0791 8.93358 48.4243C8.53327 43.605 10.8243 39.6317 15.2028 37.5455C15.2719 37.5122 15.335 37.4645 15.4005 37.4228C17.0185 36.8319 18.6829 36.5281 20.4068 36.6997C20.8429 36.7437 21.08 36.602 21.3218 36.2481C22.5847 34.4026 24.2038 32.9491 26.2042 31.9316V31.934Z" fill="#7DD7F5"/>
<path d="M26.2042 31.9345C24.2039 32.9507 22.5847 34.4054 21.3218 36.2509C21.08 36.6036 20.8429 36.7453 20.4068 36.7025C18.6829 36.5297 17.0185 36.8347 15.4006 37.4256C12.0193 32.5754 11.5845 27.4846 14.5523 22.352C17.0983 17.9485 21.1157 15.7909 26.2078 15.667C26.2078 16.42 26.2102 17.1729 26.2102 17.9271C26.2161 22.5652 26.2209 27.2034 26.2269 31.8415C26.2269 31.8737 26.2185 31.9047 26.2042 31.9345Z" fill="#FDE04D"/>
<path d="M26.2261 31.8411C26.2201 27.203 26.2154 22.5648 26.2094 17.9267C26.2094 17.1737 26.207 16.4207 26.207 15.6666C28.5946 15.6201 30.8237 16.2218 32.8753 17.4132C36.216 19.354 38.4046 22.1919 39.3447 25.9627C37.4348 26.7014 35.5882 27.5806 34.0894 28.9948C33.1494 29.8824 32.2201 30.4436 30.8499 30.4686C29.2261 30.4984 27.7034 31.1608 26.2273 31.8411H26.2261Z" fill="#F8BD2C"/>
<path d="M14.9422 16.3596C14.9232 16.978 14.6217 17.5391 13.976 17.8525C13.2945 18.1825 12.5785 18.1527 12.0304 17.6237C10.5162 16.1643 9.02451 14.6798 7.57338 13.1583C6.93359 12.4876 7.03725 11.4296 7.68061 10.7827C8.32158 10.1369 9.38193 10.0237 10.0551 10.6647C11.5908 12.129 13.0717 13.6516 14.5622 15.1647C14.8493 15.4566 14.9422 15.8545 14.9446 16.3596H14.9422Z" fill="#FCDE4C"/>
<path d="M45.2064 11.9335C45.2005 12.5363 45.017 12.9795 44.6465 13.35C43.2704 14.7237 41.9038 16.107 40.5194 17.4723C39.7641 18.2169 38.662 18.2336 37.9567 17.5426C37.2192 16.8194 37.2299 15.734 38.0103 14.9441C39.3769 13.5609 40.7529 12.1884 42.1338 10.8183C42.6925 10.2643 43.3573 10.1082 44.0996 10.3942C44.7596 10.6491 45.1957 11.3032 45.2052 11.9335H45.2064Z" fill="#F8BD2C"/>
<path d="M26.2101 12.6335C25.245 12.7419 24.4003 11.7793 24.4063 10.9131C24.4206 8.89488 24.3967 6.87664 24.417 4.8584C24.4277 3.85285 25.1438 3.19043 26.2077 3.13086C26.2077 6.29762 26.2089 9.46557 26.2101 12.6323V12.6335Z" fill="#FCDE4C"/>
<path d="M26.2094 12.6333C26.2094 9.46654 26.2082 6.29859 26.207 3.13184C27.184 3.14018 27.9727 3.83953 27.9858 4.80576C28.0144 6.86094 28.0144 8.91611 27.9858 10.9713C27.9727 11.9459 27.2042 12.6226 26.2094 12.6345V12.6333Z" fill="#F8BD2C"/>
</svg>
